<svg width="24" height="25" viewBox="0 0 24 25" fill="none" xmlns="http://www.w3.org/2000/svg">
<path fill-rule="evenodd" clip-rule="evenodd" d="M11.9502 0.896484C18.4379 0.896484 23.705 6.16364 23.705 12.6513C23.705 19.1389 18.4379 24.4061 11.9502 24.4061C5.46259 24.4061 0.195435 19.1389 0.195435 12.6513C0.195435 6.16364 5.46259 0.896484 11.9502 0.896484ZM11.9502 5.30453C9.95499 5.30453 9.70478 5.31298 8.92116 5.34875C8.13919 5.38443 7.60513 5.50863 7.13779 5.69023C6.65469 5.87799 6.24497 6.1292 5.83654 6.53764C5.42811 6.94607 5.17689 7.35579 4.98914 7.83888C4.80754 8.30618 4.68338 8.84024 4.64765 9.62221C4.61193 10.4058 4.60348 10.656 4.60348 12.6513C4.60348 14.6465 4.61193 14.8967 4.64765 15.6803C4.68338 16.4623 4.80754 16.9964 4.98914 17.4637C5.17689 17.9468 5.42811 18.3565 5.83654 18.765C6.24497 19.1734 6.65469 19.4246 7.13779 19.6124C7.60513 19.7939 8.13919 19.9181 8.92116 19.9538C9.70478 19.9896 9.95499 19.998 11.9502 19.998C13.9455 19.998 14.1957 19.9896 14.9793 19.9538C15.7613 19.9181 16.2953 19.7939 16.7626 19.6124C17.2457 19.4246 17.6554 19.1734 18.0639 18.765C18.4723 18.3565 18.7236 17.9468 18.9113 17.4637C19.0929 16.9964 19.2171 16.4623 19.2528 15.6803C19.2885 14.8967 19.297 14.6465 19.297 12.6513C19.297 10.656 19.2885 10.4058 19.2528 9.62221C19.2171 8.84024 19.0929 8.30618 18.9113 7.83888C18.7236 7.35579 18.4723 6.94607 18.0639 6.53764C17.6554 6.1292 17.2457 5.87799 16.7626 5.69023C16.2953 5.50863 15.7613 5.38443 14.9793 5.34875C14.1957 5.31298 13.9455 5.30453 11.9502 5.30453ZM11.9502 6.62828C13.9119 6.62828 14.1442 6.63576 14.919 6.67112C15.6353 6.70381 16.0242 6.82347 16.2831 6.92407C16.6261 7.05733 16.8708 7.21657 17.1278 7.47366C17.385 7.7307 17.5442 7.97549 17.6774 8.31839C17.778 8.57728 17.8977 8.96624 17.9304 9.68255C17.9657 10.4573 17.9732 10.6896 17.9732 12.6513C17.9732 14.6129 17.9657 14.8453 17.9304 15.62C17.8977 16.3363 17.778 16.7253 17.6774 16.9842C17.5442 17.3271 17.385 17.5718 17.1278 17.8289C16.8708 18.086 16.6261 18.2452 16.2831 18.3785C16.0242 18.4791 15.6353 18.5988 14.919 18.6314C14.1444 18.6668 13.912 18.6743 11.9502 18.6743C9.98841 18.6743 9.75612 18.6668 8.9815 18.6314C8.26519 18.5988 7.87623 18.4791 7.61734 18.3785C7.27439 18.2452 7.02965 18.086 6.77256 17.8289C6.51547 17.5718 6.35628 17.3271 6.22302 16.9842C6.12242 16.7253 6.00271 16.3363 5.97002 15.62C5.93466 14.8453 5.92723 14.6129 5.92723 12.6513C5.92723 10.6896 5.93466 10.4573 5.97002 9.68255C6.00271 8.96624 6.12242 8.57728 6.22302 8.31839C6.35628 7.97549 6.51547 7.7307 6.77256 7.47366C7.02965 7.21657 7.27439 7.05733 7.61734 6.92407C7.87623 6.82347 8.26519 6.70381 8.9815 6.67112C9.75621 6.63576 9.98855 6.62828 11.9502 6.62828ZM11.9502 8.87863C9.86664 8.87863 8.17758 10.5677 8.17758 12.6513C8.17758 14.7349 9.86664 16.4239 11.9502 16.4239C14.0338 16.4239 15.7229 14.7349 15.7229 12.6513C15.7229 10.5677 14.0338 8.87863 11.9502 8.87863ZM11.9502 15.1002C10.5977 15.1002 9.50132 14.0038 9.50132 12.6513C9.50132 11.2988 10.5977 10.2024 11.9502 10.2024C13.3027 10.2024 14.3991 11.2988 14.3991 12.6513C14.3991 14.0038 13.3027 15.1002 11.9502 15.1002ZM16.7536 8.72958C16.7536 9.21649 16.3588 9.61115 15.8719 9.61115C15.3851 9.61115 14.9904 9.21649 14.9904 8.72958C14.9904 8.24268 15.3851 7.84797 15.8719 7.84797C16.3588 7.84797 16.7536 8.24268 16.7536 8.72958Z" fill="black"/>
</svg>
