<svg width="24" height="25" viewBox="0 0 24 25" fill="none" xmlns="http://www.w3.org/2000/svg">
<path fill-rule="evenodd" clip-rule="evenodd" d="M12.0498 0.896484C18.5375 0.896484 23.8046 6.16364 23.8046 12.6513C23.8046 19.1389 18.5375 24.4061 12.0498 24.4061C5.5622 24.4061 0.295044 19.1389 0.295044 12.6513C0.295044 6.16364 5.5622 0.896484 12.0498 0.896484ZM8.37476 19.2574V10.0776H5.32293V19.2574H8.37476ZM19.3774 19.2574V13.9932C19.3774 11.1735 17.8719 9.86176 15.8644 9.86176C14.2455 9.86176 13.5204 10.752 13.1144 11.3773V10.0776H10.0634C10.1038 10.9389 10.0634 19.2574 10.0634 19.2574H13.1144V14.1308C13.1144 13.8564 13.1341 13.5821 13.215 13.3859C13.4352 12.8379 13.9376 12.2702 14.7805 12.2702C15.8841 12.2702 16.3262 13.1123 16.3262 14.3458V19.2574H19.3774ZM6.86946 5.65121C5.82531 5.65121 5.14311 6.33767 5.14311 7.23741C5.14311 8.1182 5.80455 8.82357 6.82905 8.82357H6.84875C7.91288 8.82357 8.57524 8.1182 8.57524 7.23741C8.55549 6.33767 7.91293 5.65121 6.86946 5.65121Z" fill="black"/>
</svg>
