<svg width="25" height="25" viewBox="0 0 25 25" fill="none" xmlns="http://www.w3.org/2000/svg">
<path fill-rule="evenodd" clip-rule="evenodd" d="M12.3486 0.896484C5.85662 0.896484 0.593872 6.15937 0.593872 12.6512C0.593872 17.6312 3.69213 21.8884 8.06491 23.6011C7.96206 22.671 7.86926 21.2407 8.10573 20.2254C8.31925 19.308 9.48407 14.3825 9.48407 14.3825C9.48407 14.3825 9.13239 13.6784 9.13239 12.6373C9.13239 11.0028 10.0798 9.78255 11.2594 9.78255C12.2622 9.78255 12.7467 10.5356 12.7467 11.4384C12.7467 12.447 12.1046 13.9548 11.7731 15.3521C11.4963 16.5222 12.3599 17.4763 13.5138 17.4763C15.6032 17.4763 17.2091 15.2734 17.2091 12.0935C17.2091 9.27907 15.1867 7.31125 12.2991 7.31125C8.95442 7.31125 6.99119 9.81989 6.99119 12.4124C6.99119 13.4228 7.38033 14.5061 7.866 15.0949C7.96197 15.2113 7.97611 15.3134 7.94755 15.4321C7.85824 15.8034 7.66002 16.6018 7.62103 16.7652C7.56974 16.9803 7.45063 17.026 7.22794 16.9224C5.75978 16.239 4.84194 14.0927 4.84194 12.3686C4.84194 8.66057 7.53599 5.25535 12.6087 5.25535C16.6865 5.25535 19.8554 8.16094 19.8554 12.0442C19.8554 16.0954 17.3011 19.3557 13.7557 19.3557C12.5646 19.3557 11.4448 18.7369 11.0616 18.006C11.0616 18.006 10.4721 20.2503 10.3292 20.8003C10.0637 21.8214 9.34738 23.1012 8.86819 23.8818C9.96813 24.2224 11.1369 24.406 12.3486 24.406C18.8407 24.406 24.1035 19.1434 24.1035 12.6512C24.1035 6.15937 18.8407 0.896484 12.3486 0.896484Z" fill="black"/>
</svg>
